<svg xmlns="http://www.w3.org/2000/svg" height="961.447" width="1414.338"><path style="marker:none" d="M642.477 704.174c.47 0 .94-.1 1.409-.302.47-.201.938-.503 1.408-.905.47-.401.939-.903 1.408-1.504.47-.6.939-1.3 1.408-2.097.47-.797.94-1.692 1.409-2.682.47-.99.938-2.077 1.408-3.257.47-1.18.939-2.453 1.408-3.818.47-1.365.939-2.82 1.408-4.365.47-1.544.94-3.176 1.409-4.893.469-1.718.938-3.52 1.408-5.404s.939-3.85 1.408-5.893c.47-2.043.939-4.163 1.408-6.357.47-2.194.94-4.462 1.409-6.798.469-2.337.938-4.742 1.408-7.212.47-2.47.939-5.003 1.408-7.596.47-2.593.939-5.246 1.408-7.952.47-2.706.94-5.466 1.408-8.275.47-2.809.94-5.666 1.409-8.566.47-2.9.939-5.843 1.408-8.823.47-2.98.939-5.997 1.408-9.046.47-3.048.94-6.127 1.408-9.232.47-3.104.94-6.234 1.409-9.382.47-3.149.938-6.316 1.408-9.496.47-3.18.939-6.372 1.408-9.571.47-3.199.939-6.404 1.408-9.61l1.409-9.608c.47-3.2.938-6.392 1.408-9.572.47-3.18.939-6.347 1.408-9.495.47-3.148.939-6.278 1.408-9.382.47-3.105.94-6.184 1.409-9.233.469-3.048.938-6.065 1.408-9.045.47-2.98.939-5.923 1.408-8.823.47-2.9.939-5.758 1.408-8.566.47-2.81.94-5.57 1.409-8.275.469-2.707.938-5.359 1.408-7.952s.939-5.127 1.408-7.596c.47-2.47.939-4.875 1.408-7.212.47-2.336.94-4.604 1.408-6.798.47-2.194.94-4.315 1.409-6.358.47-2.043.939-4.008 1.408-5.892.47-1.884.939-3.686 1.408-5.404.47-1.717.939-3.35 1.408-4.894.47-1.544.94-3 1.409-4.364a86.26 86.26 0 0 1 1.408-3.818c.47-1.18.939-2.267 1.408-3.257.47-.99.939-1.885 1.408-2.682a19.39 19.39 0 0 1 1.409-2.097c.469-.601.938-1.103 1.408-1.504.47-.402.939-.704 1.408-.905.47-.202.939-.302 1.408-.302M557.602 19.889c.555 0 1.11.225 1.665.675.555.45 1.11 1.125 1.665 2.023.555.898 1.11 2.02 1.665 3.362.555 1.343 1.11 2.907 1.665 4.69.555 1.781 1.11 3.782 1.665 5.996.554 2.214 1.11 4.643 1.664 7.28.555 2.638 1.11 5.486 1.665 8.537.555 3.05 1.11 6.306 1.665 9.758a699.98 699.98 0 0 1 1.665 10.941c.555 3.84 1.11 7.87 1.665 12.081.555 4.212 1.11 8.607 1.665 13.174.554 4.568 1.11 9.31 1.664 14.214.555 4.906 1.11 9.975 1.665 15.199.555 5.223 1.11 10.601 1.665 16.123.555 5.52 1.11 11.186 1.665 16.983.555 5.797 1.11 11.727 1.665 17.777.555 6.05 1.11 12.222 1.665 18.501.555 6.28 1.11 12.668 1.664 19.151.555 6.484 1.11 13.064 1.665 19.726.555 6.663 1.11 13.409 1.665 20.224.555 6.815 1.11 13.7 1.665 20.64.555 6.94 1.11 13.938 1.665 20.976.555 7.04 1.11 14.12 1.665 21.23.555 7.109 1.11 14.247 1.664 21.398l1.665 21.483 1.665 21.484c.555 7.151 1.11 14.289 1.665 21.398.555 7.11 1.11 14.19 1.665 21.23.555 7.039 1.11 14.035 1.665 20.976.555 6.94 1.11 13.825 1.664 20.64.555 6.815 1.11 13.56 1.665 20.223.555 6.663 1.11 13.243 1.665 19.727.555 6.484 1.11 12.871 1.665 19.15.555 6.28 1.11 12.451 1.665 18.502.555 6.05 1.11 11.98 1.665 17.777.555 5.797 1.11 11.462 1.664 16.983.555 5.522 1.11 10.9 1.665 16.123.555 5.224 1.11 10.293 1.665 15.199.555 4.905 1.11 9.646 1.665 14.214.555 4.568 1.11 8.961 1.665 13.173.555 4.213 1.11 8.242 1.665 12.082.555 3.84 1.11 7.489 1.664 10.941.555 3.452 1.11 6.707 1.665 9.758.555 3.051 1.11 5.898 1.665 8.536.555 2.639 1.11 5.067 1.665 7.281.555 2.215 1.11 4.215 1.665 5.997.555 1.782 1.11 3.346 1.665 4.689.555 1.343 1.11 2.464 1.665 3.362.554.898 1.11 1.573 1.664 2.023.555.45 1.11.675 1.665.675m-176.76-185.929c1.542-.058 2.628-.943 3.697-1.966.616-.654 1.232-1.472 1.848-2.45a32.957 32.957 0 0 0 1.849-3.417 61.046 61.046 0 0 0 1.848-4.37 103.495 103.495 0 0 0 1.848-5.306 163.566 163.566 0 0 0 1.849-6.221 244.542 244.542 0 0 0 1.848-7.112 349.977 349.977 0 0 0 1.849-7.973 483.632 483.632 0 0 0 1.848-8.805c.616-3.07 1.232-6.272 1.848-9.6a853.745 853.745 0 0 0 1.849-10.36c.616-3.574 1.232-7.269 1.848-11.075.616-3.807 1.232-7.726 1.849-11.75.616-4.024 1.232-8.152 1.848-12.377.616-4.225 1.232-8.546 1.848-12.955.617-4.41 1.233-8.907 1.849-13.483a3376.11 3376.11 0 0 0 1.848-13.957c.616-4.725 1.232-9.52 1.849-14.376.616-4.855 1.232-9.771 1.848-14.738.616-4.966 1.232-9.984 1.848-15.042.616-5.058 1.233-10.157 1.849-15.286.616-5.13 1.232-10.29 1.848-15.472.616-5.18 1.232-10.382 1.849-15.594l1.848-15.656 1.848-15.657c.616-5.212 1.233-10.413 1.849-15.594.616-5.181 1.232-10.342 1.848-15.471.616-5.13 1.232-10.229 1.849-15.287a6799.01 6799.01 0 0 1 1.848-15.042 5279.27 5279.27 0 0 1 1.848-14.738c.616-4.856 1.233-9.65 1.849-14.376.616-4.725 1.232-9.38 1.848-13.957.616-4.576 1.232-9.073 1.849-13.482.616-4.41 1.232-8.73 1.848-12.956a1763.27 1763.27 0 0 1 1.848-12.377 1402.34 1402.34 0 0 1 1.849-11.75 1103.46 1103.46 0 0 1 1.848-11.076c.616-3.575 1.232-7.03 1.848-10.358.617-3.33 1.233-6.531 1.849-9.601.616-3.07 1.232-6.006 1.848-8.804a350.013 350.013 0 0 1 1.849-7.974 244.525 244.525 0 0 1 1.848-7.111 163.729 163.729 0 0 1 1.848-6.221 103.496 103.496 0 0 1 1.849-5.306 61.041 61.041 0 0 1 1.848-4.37 32.955 32.955 0 0 1 1.849-3.417c.616-.98 1.232-1.796 1.848-2.45.616-.656 1.232-1.147 1.848-1.475.617-.328 1.233-.492 1.849-.492M107.842 517.63c3.57-3.672 8.843-13.801 12.412-26.284 3.57-12.484 7.14-28.027 10.708-42.555 3.57-14.527 7.139-27.88 10.708-36.577 3.57-8.697 7.139-12.622 10.708-10.774 3.57 1.848 7.139 9.48 10.708 20.87 3.57 11.392 7.139 26.442 10.708 41.202 3.57 14.76 7.139 29.07 10.708 39.198 3.57 10.128 7.139 15.942 10.708 15.948 3.57.004 7.139-5.828 10.708-15.948 3.57-10.119 7.139-24.44 10.708-39.198 3.57-14.759 7.139-29.803 10.708-41.201 3.57-11.399 7.138-19.012 10.708-20.87 3.57-1.86 7.138 2.085 10.708 10.773 3.569 8.688 7.138 22.052 10.708 36.577 3.569 14.526 7.138 30.066 10.708 42.555 3.569 12.489 7.138 21.78 10.708 25.463 3.569 3.684 7.138 1.69 10.707-5.43 3.57-7.119 7.14-19.316 10.708-33.379 3.57-14.063 7.14-29.853 10.708-43.236 3.57-13.383 7.139-24.207 10.708-29.656 3.57-5.449 7.139-5.438 10.708 0 3.57 5.44 7.139 16.277 10.708 29.656 3.57 13.378 7.139 29.17 10.708 43.236 3.57 14.066 7.139 26.25 10.708 33.38 3.57 7.13 7.139 9.102 10.708 5.43 3.57-3.673 7.139-12.981 10.708-25.464 3.57-12.484 7.139-28.027 10.708-42.555 3.57-14.527 7.139-27.88 10.708-36.577 3.57-8.697 7.138-12.622 10.708-10.774 3.57 1.848 7.138 9.48 10.708 20.87 3.569 11.392 7.138 26.442 10.708 41.202 3.569 14.76 7.138 29.07 10.708 39.198 3.569 10.128 7.138 15.942 10.708 15.948m251.187-120.556c1.014 0 2.028.358 3.042 1.066 1.014.707 2.028 1.767 3.041 3.158 1.014 1.39 2.028 3.114 3.042 5.139 1.014 2.024 2.028 4.351 3.042 6.938a170.724 170.724 0 0 1 3.042 8.491 321.652 321.652 0 0 1 3.042 9.743 617.812 617.812 0 0 1 3.042 10.651c1.014 3.66 2.028 7.41 3.042 11.18 1.014 3.772 2.027 7.566 3.041 11.315 1.014 3.749 2.028 7.453 3.042 11.047a492.017 492.017 0 0 0 3.042 10.389 261.324 261.324 0 0 0 3.042 9.362c1.014 2.912 2.028 5.595 3.042 8.004 1.014 2.41 2.028 4.542 3.042 6.363 1.014 1.82 2.028 3.328 3.042 4.496 1.013 1.168 2.027 1.995 3.041 2.469 1.014.474 2.028.592 3.042.356 1.014-.237 2.028-.832 3.042-1.771 1.014-.94 2.028-2.226 3.042-3.835 1.014-1.608 2.028-3.541 3.042-5.762 1.014-2.22 2.028-4.731 3.042-7.486a211.738 211.738 0 0 0 3.041-8.944 396.52 396.52 0 0 0 3.042-10.086 793.935 793.935 0 0 0 3.042-10.87c1.014-3.712 2.028-7.491 3.042-11.27 1.014-3.779 2.028-7.558 3.042-11.27a794.395 794.395 0 0 1 3.042-10.87 396.664 396.664 0 0 1 3.042-10.086c1.014-3.19 2.027-6.19 3.041-8.944 1.014-2.755 2.028-5.265 3.042-7.486 1.014-2.222 2.028-4.153 3.042-5.763 1.014-1.609 2.028-2.894 3.042-3.834 1.014-.94 2.028-1.533 3.042-1.77 1.014-.239 2.028-.119 3.042.355 1.014.473 2.028 1.302 3.042 2.469 1.014 1.167 2.027 2.675 3.041 4.496 1.014 1.82 2.028 3.954 3.042 6.362 1.014 2.409 2.028 5.093 3.042 8.005a261.265 261.265 0 0 1 3.042 9.362 491.773 491.773 0 0 1 3.042 10.389c1.014 3.594 2.028 7.298 3.042 11.047 1.014 3.749 2.028 7.543 3.041 11.314 1.014 3.772 2.028 7.52 3.042 11.18a618.021 618.021 0 0 0 3.042 10.651 321.75 321.75 0 0 0 3.042 9.744 170.873 170.873 0 0 0 3.042 8.49c1.014 2.588 2.027 4.914 3.041 6.939 1.014 2.025 3.575 7.062 4.589 8.453" color="#000" overflow="visible" fill="none" stroke="#5226dc" stroke-width="2" stroke-linecap="round" stroke-dashoffset="2"/><path style="marker:none" d="M861.923 873.023H105.891V16.903" color="#000" overflow="visible" fill="none" stroke="#000" stroke-width="4.771"/><text style="line-height:0%;text-align:end" x="65.701" y="1110.38" font-weight="400" font-family="Bitstream Vera Sans" text-anchor="end" transform="translate(30.506 -235.553)"><tspan x="65.701" y="1110.38" style="line-height:1.25" font-size="20">0</tspan></text><path d="M103.2 703.672h893.05M105.54 519.966h1028.018M103.264 397.174h893.935" fill="none" stroke="#000"/><text style="line-height:0%;text-align:end" x="66.121" y="941.648" font-weight="400" font-family="Bitstream Vera Sans" text-anchor="end" transform="translate(30.506 -235.553)"><tspan x="66.121" y="941.648" style="line-height:1.25" font-size="20">15</tspan></text><text style="line-height:0%;text-align:end" x="65.701" y="759.505" font-weight="400" font-family="Bitstream Vera Sans" text-anchor="end" transform="translate(30.506 -235.553)"><tspan x="65.701" y="759.505" style="line-height:1.25" font-size="20">30</tspan></text><text style="line-height:0%;text-align:end" x="66.082" y="638.076" font-weight="400" font-family="Bitstream Vera Sans" text-anchor="end" transform="translate(30.506 -235.553)"><tspan x="66.082" y="638.076" style="line-height:1.25" font-size="20">37</tspan></text><text style="line-height:0%;text-align:end" x="65.701" y="260.934" font-weight="400" font-family="Bitstream Vera Sans" text-anchor="end" transform="translate(30.506 -235.553)"><tspan x="65.701" y="260.934" style="line-height:1.25" font-size="20">80</tspan></text><text style="line-height:0%;-inkscape-font-specification:'Bitstream Vera Sans Bold'" x="-829.11" y="7.007" transform="rotate(-90 -102.523 -133.03)" font-weight="700" font-family="Bitstream Vera Sans"><tspan x="-829.11" y="7.007" style="line-height:1.25" font-size="36.212">Volume (ml/kg)</tspan></text><path fill="none" stroke="#000" stroke-linejoin="round" d="M484.867 873.022h207.377v77.924H484.867zM105.89 873.022h378.976v77.924H105.89z"/><path fill="none" stroke="#000" d="M692.243 873.022h169.68v77.924h-169.68z"/><path style="marker:none" color="#000" overflow="visible" fill="none" stroke="#000" stroke-linecap="round" stroke-dashoffset="2" d="M861.923 19.861h135.276v852.182H861.923z"/><text style="line-height:0%;text-align:center" x="929.643" y="768.444" font-weight="400" font-family="Bitstream Vera Sans" text-anchor="middle"><tspan x="929.643" y="768.444" style="line-height:1.25" font-size="20">Residual</tspan><tspan x="929.643" y="793.444" style="line-height:1.25" font-size="20">Volume</tspan><tspan x="929.643" y="818.444" style="line-height:1.25" font-size="20">(RV)</tspan></text><text style="line-height:0%;text-align:center" x="928.271" y="578.383" font-weight="400" font-family="Bitstream Vera Sans" text-anchor="middle"><tspan x="928.271" y="578.383" style="line-height:1.25" font-size="20">Expiratory</tspan><tspan x="931.787" y="603.383" style="line-height:1.25" font-size="20">Reserve </tspan><tspan x="928.271" y="628.383" style="line-height:1.25" font-size="20">Volume</tspan><tspan x="928.271" y="653.383" style="line-height:1.25" font-size="20">(ERV)</tspan></text><text style="line-height:0%;text-align:center" x="929.706" y="438.117" font-weight="400" font-family="Bitstream Vera Sans" text-anchor="middle"><tspan x="929.706" y="438.117" style="line-height:1.25" font-size="20">Tidal</tspan><tspan x="929.706" y="463.117" style="line-height:1.25" font-size="20">Volume</tspan><tspan x="929.706" y="488.117" style="line-height:1.25" dy="0 0 0 0 0 0 0 0 10.101525 -10.101525" font-size="20">(TV or V<tspan font-size="14">T</tspan>)</tspan></text><text style="line-height:0%;text-align:center" x="929.19" y="176.325" font-weight="400" font-family="Bitstream Vera Sans" text-anchor="middle"><tspan x="929.19" y="176.325" style="line-height:1.25" font-size="20">Inspiratory</tspan><tspan x="932.706" y="201.325" style="line-height:1.25" font-size="20">Reserve </tspan><tspan x="929.19" y="226.325" style="line-height:1.25" font-size="20">Volume</tspan><tspan x="929.19" y="251.325" style="line-height:1.25" font-size="20">(IRV)</tspan></text><path style="marker:none" color="#000" overflow="visible" fill="none" stroke="#000" stroke-linecap="round" stroke-dashoffset="2" d="M997.47 19.861h135.276v852.182H997.47z"/><text style="line-height:0%;text-align:center" x="1065.067" y="664.091" font-weight="400" font-family="Bitstream Vera Sans" text-anchor="middle"><tspan x="1065.067" y="664.091" style="line-height:1.25" font-size="20">Functional</tspan><tspan x="1065.067" y="689.091" style="line-height:1.25" font-size="20">Residual</tspan><tspan x="1065.067" y="714.091" style="line-height:1.25" font-size="20">Capacity</tspan><tspan x="1065.067" y="739.091" style="line-height:1.25" font-size="20">(FRC)</tspan></text><text style="line-height:0%;text-align:center" x="1200.539" y="342.136" font-weight="400" font-family="Bitstream Vera Sans" text-anchor="middle"><tspan x="1200.539" y="342.136" style="line-height:1.25" font-size="20">Vital</tspan><tspan x="1200.539" y="367.136" style="line-height:1.25" font-size="20">Capacity</tspan><tspan x="1200.539" y="392.136" style="line-height:1.25" font-size="20">(VC)</tspan></text><path style="marker:none" color="#000" overflow="visible" fill="none" stroke="#000" stroke-linecap="round" stroke-dashoffset="2" d="M1133.042 19.861h135.237v852.182h-135.237z"/><path d="M1132.982 703.238h135.357" fill="none" stroke="#000"/><text style="line-height:0%;text-align:center" x="1200.577" y="768.227" font-weight="400" font-family="Bitstream Vera Sans" text-anchor="middle"><tspan x="1200.577" y="768.227" style="line-height:1.25" font-size="20">Residual</tspan><tspan x="1200.577" y="793.227" style="line-height:1.25" font-size="20">Volume</tspan><tspan x="1200.577" y="818.227" style="line-height:1.25" font-size="20">(RV)</tspan></text><text style="line-height:0%;text-align:center" x="1064.737" y="250.221" font-weight="400" font-family="Bitstream Vera Sans" text-anchor="middle"><tspan x="1064.737" y="250.221" style="line-height:1.25" font-size="20">Inspiratory</tspan><tspan x="1064.737" y="275.221" style="line-height:1.25" font-size="20">Capacity</tspan><tspan x="1064.737" y="300.221" style="line-height:1.25" font-size="20">(IC)</tspan></text><path style="marker:none" color="#000" overflow="visible" fill="none" stroke="#000" stroke-linecap="round" stroke-dashoffset="2" d="M1268.563 19.861h135.276v852.182h-135.276z"/><text style="line-height:0%;text-align:center" x="1333.975" y="414.528" font-weight="400" font-family="Bitstream Vera Sans" text-anchor="middle"><tspan x="1333.975" y="414.528" style="line-height:1.25" font-size="20">Total</tspan><tspan x="1333.975" y="439.528" style="line-height:1.25" font-size="20">Lung</tspan><tspan x="1333.975" y="464.528" style="line-height:1.25" font-size="20">Capacity</tspan><tspan x="1333.975" y="489.528" style="line-height:1.25" font-size="20">(TLC)</tspan></text><text y="906.931" x="588.443" style="line-height:0%;text-align:center" font-weight="400" font-family="Bitstream Vera Sans" text-anchor="middle"><tspan style="line-height:1.25" y="906.931" x="588.443" font-size="20">Forced respiration</tspan><tspan style="line-height:1.25" y="931.931" x="588.443" font-size="20">(Deep breath)</tspan></text><text y="906.931" x="295.267" style="line-height:0%;text-align:center" font-weight="400" font-family="Bitstream Vera Sans" text-anchor="middle"><tspan style="line-height:1.25" y="906.931" x="295.267" font-size="20">Normal</tspan><tspan style="line-height:1.25" y="931.931" x="295.267" font-size="20">respiration</tspan></text><text style="line-height:0%;text-align:center" x="777.044" y="906.931" font-weight="400" font-family="Bitstream Vera Sans" text-anchor="middle"><tspan x="777.044" y="906.931" style="line-height:1.25" font-size="20">Normal</tspan><tspan x="777.044" y="931.931" style="line-height:1.25" font-size="20">respiration</tspan></text></svg>