<?xml version="1.0" encoding="UTF-8"?><!--Generator: Adobe Illustrator 24.0.2, SVG Export Plug-In . SVG Version: 6.00 Build 0)--><svg width="505" height="385" viewBox="13.671875 228.515625 986.328125 751.953125" xmlns="http://www.w3.org/2000/svg" xmlns:xlink="http://www.w3.org/1999/xlink" version="1.1" id="Layer_1" x="0px" y="0px" style="enable-background:new 0 0 1000 1000;" xml:space="preserve"><style xmlns="http://www.w3.org/2000/svg" type="text/css">.st0{fill:#F4B092;stroke:#440E06;stroke-miterlimit:10;}
	.st1{opacity:0.1;fill:#331A02;enable-background:new    ;}
	.st2{opacity:0.13;fill:#331A02;enable-background:new    ;}
	.st3{fill:#CAECFF;stroke:#440E06;stroke-miterlimit:10;}
	.st4{fill:#F4B092;stroke:#89351B;stroke-width:0.9373;stroke-miterlimit:10;}
	.st5{opacity:0.33;fill:#3F1C18;enable-background:new    ;}
	.st6{opacity:0.14;fill:#3F1C18;enable-background:new    ;}
	.st7{opacity:0.11;fill:#FFFFFF;enable-background:new    ;}
	.st8{opacity:0.1;fill:#FFFFFF;enable-background:new    ;}
	.st9{fill:#E29476;}
	.st10{fill:#3F1C18;}
	.st11{opacity:0.26;fill:#3F1C18;enable-background:new    ;}
	.st12{opacity:0.53;fill:#3F1C18;enable-background:new    ;}
	.st13{fill:#F4B092;}
	.st14{opacity:0.26;fill:#F9352B;enable-background:new    ;}
	.st15{opacity:0.8;fill:#AF0505;enable-background:new    ;}
	.st16{opacity:7.000000e-02;fill:#491507;enable-background:new    ;}
	.st17{opacity:0.1;fill:#3F1C18;enable-background:new    ;}
	.st18{opacity:0.67;fill:#3F1C18;enable-background:new    ;}
	.st19{opacity:0.22;fill:#3F1C18;enable-background:new    ;}
	.st20{opacity:0.25;fill:#FFFFFF;enable-background:new    ;}
	.st21{opacity:8.000000e-02;fill:#3F1C18;enable-background:new    ;}
	.st22{opacity:0.2;fill:#FFFFFF;enable-background:new    ;}
	.st23{opacity:0.14;fill:#F9352B;enable-background:new    ;}
	.st24{opacity:0.33;fill:#FFFFFF;enable-background:new    ;}
	.st25{opacity:0.18;fill:#3F1C18;enable-background:new    ;}
	.st26{opacity:9.000000e-02;fill:#3F1C18;enable-background:new    ;}
	.st27{opacity:0.14;fill:#FFFFFF;enable-background:new    ;}
	.st28{fill:none;stroke:#6B2009;stroke-width:0.6249;stroke-miterlimit:10;}
	.st29{fill:#70200D;stroke:#440E06;stroke-width:0.9373;stroke-miterlimit:10;}
	.st30{fill:#5B1507;}
	.st31{opacity:0.33;fill:#CC6250;enable-background:new    ;}
	.st32{fill:none;stroke:#000000;stroke-width:0.1556;stroke-miterlimit:10;}
	.st33{opacity:0.11;fill:#491507;enable-background:new    ;}
	.st34{opacity:0.22;fill:#491507;enable-background:new    ;}
	.st35{fill:#E53E28;}
	.st36{fill:#FCE4DB;}
	.st37{fill:#682910;}
	.st38{fill:#FFFFFF;stroke:#071116;stroke-width:0.6739;stroke-miterlimit:10;}
	.st39{fill:#FFFFFF;stroke:#071116;stroke-width:0.6705;stroke-miterlimit:10;}
	.st40{fill:#70200D;}
	.st41{fill:#70200D;stroke:#440E06;stroke-width:0.8657;stroke-miterlimit:10;}
	.st42{fill:#70200D;stroke:#440E06;stroke-width:0.879;stroke-miterlimit:10;}
	.st43{fill:#071116;}
	.st44{fill:none;stroke:#071116;stroke-miterlimit:10;}
	.st45{opacity:0.31;fill:#FFFFFF;}
	.st46{fill:none;}
	.st47{font-family:&apos;ArialMT&apos;;}
	.st48{font-size:34px;}
	.st49{enable-background:new    ;}
	.st50{opacity:0.22;}
	.st51{opacity:0.39;fill:#427084;enable-background:new    ;}
	.st52{fill:#427084;}
	.st53{opacity:0.14;fill:#427084;enable-background:new    ;}
	.st54{fill:none;stroke:#000000;stroke-miterlimit:10;}
	.st55{opacity:0.37;fill:#FFFFFF;enable-background:new    ;}
	.st56{opacity:0.19;fill:#FFFFFF;enable-background:new    ;}
	.st57{opacity:7.000000e-02;fill:#3F1C18;enable-background:new    ;}
	.st58{opacity:0.75;fill:#3F1C18;enable-background:new    ;}
	.st59{fill:none;stroke:#3F1C18;stroke-miterlimit:10;}
	.st60{fill:none;stroke:#071116;stroke-width:2;stroke-miterlimit:10;}</style><g xmlns="http://www.w3.org/2000/svg"><g><polygon class="st0" points="785.9,879.2 788.2,1007.9 685.2,1003.7 674.9,884.6   "/><path class="st1" d="M788.6,910.6l-85.4-3.7c0,0-10.3,20.3,28.6,24.6c38.9,4.3,44.1,5.1,44.5,8.3c0.3,2.4-13.6,47.8-11.8,62.1    l23.8,5.9L788.6,910.6z"/><polygon class="st0" points="248,851.9 213.5,1015.9 304.9,1010.4 336.2,869.9   "/><path class="st2" d="M270.4,907.2c0,0,42.2-0.6,37.5,23.4s-72.8,83.4-72.8,83.4l74-1.2l18.7-98.1L270.4,907.2z"/><path class="st3" d="M719.4,704.4c-12.6-15.8-88.1-30-113.4-41.7c-25.3-11.7-164.3-13.6-164.3-13.6s-119.6,19.4-127.3,21.4    c-7.8,2-23.6,5.1-34,25.3s-65.1,200.6-65.1,200.6l110.1,20.3c-1.2,8.8-1.7-0.5-3.1,13.3c-1.6,15.6-3.9,78-3.9,78l355.8-1.4l5.1-86    l116.4-20.3C790.8,864.4,739.6,729.7,719.4,704.4z"/><path class="st4" d="M580.8,588.6c0,0-3.8,13.9,0,46.6c3.9,33.5,6.5,35.5,6.5,35.5s-36.9,40.6-74.7,40.7    c-37.7,0.1-76.1-40.3-76.4-41.7c-0.7-2.7,14.4-42.4,10.5-69.3c-3.9-26.9,4.1-4.3,4.1-4.3L580.8,588.6z"/><path class="st5" d="M455.9,606.3l-6.5,2.7c0,0,23.7,26.9,42.7,31.5c19.1,4.6,22.3-1.3,28.9-5.2    C527.6,631.2,455.9,606.3,455.9,606.3z"/><path class="st6" d="M580.8,635.2c-2.3-19.3-1.8-32.1-1.2-39.3c-0.7,0.2-1.5,0.6-2.2,1.2c-4.6,3.9-32.9,29.5-46.6,34.2    s26.3,5.2,20.3,13.1c-5.9,7.8-28.8,65.1-28.8,65.1l21.4-1c15.5-11.7,42.8-33.1,42.8-33.1S584.7,668.7,580.8,635.2z"/><path class="st7" d="M509.4,586.8c0,0-15.6,5.9-5.9,6c9.8,0.1,13,1.2,18.9-0.7C528.3,590.2,514.2,585.1,509.4,586.8z"/><path class="st8" d="M504.3,591c0,0-44.8,8-21.7,20.7c23.1,12.7,25.2,17.5,36.4,8C530.2,610.1,554.7,587.9,504.3,591z"/><path class="st9" d="M604.2,481.1c0,0,3.2,18.2,1,20.7C605.2,501.9,611.6,493,604.2,481.1z"/><path class="st5" d="M579.7,624.7c-1-12.5-1.5-10.3-1-16.2c-10.9,12.8-41.4,40-41.4,40s23.3-9.1,30.3-20.5    C574.1,626.7,577.8,625.8,579.7,624.7z"/><path class="st10" d="M446.1,604.3"/><g><path class="st11" d="M518.9,506.7c0,0,27.5,30.8,64,17.7c36.5-13.1,38.4-54.5-10.5-64.7s-57,25.9-57.5,36     C514.5,505.7,518.9,506.7,518.9,506.7z"/><path class="st12" d="M526.2,475.1c0,0,24.9-22.9,57.1-9c32.2,13.9,30.9,49.9-14.1,55.3s-49.8-26.5-49.6-35.2     C519.9,477.4,526.2,475.1,526.2,475.1z"/><path class="st13" d="M511.6,384.8c-7.1-2.6-102.4-20.2-113.2,26.6c0,0,6.5,45.8,7.8,62.8s1.1,90.3,22,118.9     c20.8,28.6,44.7,39.3,57.1,47.3c10.7,6.8,21.9,8.1,25,8.3v0.1c0,0,0.1,0,0.4,0s0.4,0,0.4,0v-0.1c3.1,0,14.4-0.6,25.5-6.6     c13-7.1,34.9-16.3,57.6-43.3c22.7-27.1,27.7-100.2,30.1-117.1c0.2-1.3,0.4-2.8,0.7-4.2c2.9-16.1,9.7-62.7,9.7-62.7     C627.1,367.4,518.8,382.7,511.6,384.8z"/><path class="st14" d="M470.2,575.1c0,0,14.4-1.4,20.8-3.2c6.5-1.7,7.2-1.7,10.8-0.5c3.6,1.1,9.6,1.4,14.2,1.1     c4.6-0.4,26.1,5.9,32.5,6.1c0,0-19,21.5-29.1,21.1c-10.1-0.4-15.5-2.5-18.8-1.6C497.5,599,476.4,579.7,470.2,575.1z"/><path class="st15" d="M474.5,576.1c0,0,22.2-3.4,28.3-3.2c6.1,0.2,12.1,2.5,12.1,2.5l32.5,3.6     C547.4,579.1,499.1,604.9,474.5,576.1z"/><path class="st16" d="M431.5,564.2c-5.7,3.7-8.5,7.6-8.5,7.6s-2.3,1.1,2.6,4.3c2.3,1.5,3.6,2.8,4.7,3.7     C429.3,574.5,430.3,568.7,431.5,564.2z"/><path class="st16" d="M537.2,494.9c0,1.1,1.9,1.1,4.3,1.3c0.6,0,1.5,0.2,2.4,0.4c0.3-0.7,0.6-1.5,1-2.5c0.5-1.2,0.5-2.8,0.3-4.3     c-1.5,1.6-2.4,2.8-2.7,3C541.6,493.1,537.3,493.8,537.2,494.9z"/><path class="st17" d="M513.1,516.6c0,0-4.1,12.1,5.2,15.7c9.4,3.6,9.7,5,11,2.9c1.3-2.1,3.2-1.3-0.6-2.3     C525,531.8,519.3,513.3,513.1,516.6z"/><path class="st18" d="M517.6,542.2c0,0-8.6,4.4-0.8,5.3c7.8,0.9,5.8-4.8,5.8-4.8S520.5,541.3,517.6,542.2z"/><path class="st19" d="M518.8,543.3c0,0-11.2,4.2-1,5.1c10.1,0.9,7.5-4.6,7.5-4.6S522.5,542.5,518.8,543.3z"/><path class="st19" d="M493.6,540.7c0,0,10.7,6.4,0.6,6.9c-10.2,0.4-7.1-6.7-7.1-6.7S490,539.4,493.6,540.7z"/><path class="st18" d="M494.1,542.1c0,0,8.3,4,0.4,4.2c-7.8,0.3-5.5-4.2-5.5-4.2S491.4,541.2,494.1,542.1z"/><path class="st20" d="M500.1,525.8c0,0-9.4,8.8-0.4,12.2s9.4,0.9,9.6-3.7C509.4,529.6,504,522.5,500.1,525.8z"/><path class="st21" d="M495.8,519.4c0,0-10.7,16.3-6.2,15.3c4.4-1,2.9-1.7,4.6-4C495.9,528.4,497.9,520.5,495.8,519.4z"/><path class="st12" d="M518.3,521c0,0,1,7.2,3.6,8.7C524.5,531.1,525.6,525.4,518.3,521z"/><path class="st17" d="M500.5,547.5c0,0,4.6,2.5,10.9-2.4C511.4,545.1,506.8,554,500.5,547.5z"/><path class="st17" d="M527.7,533.5c0,0,2.1,7.6,0.1,10.8C525.9,547.5,540.5,547.5,527.7,533.5z"/><path class="st22" d="M489.4,533.4c0,0-9.2,2.7-3.7,8.5C491.1,547.7,488,537.4,489.4,533.4z"/><path class="st6" d="M602.9,451.9c0,0,5.1,29.8,3.2,41.9c-1.9,12.1-4.3,15.8,4.6,14.7c9-1.1,6.2-17.2,3.6-23.8     C611.9,478.1,616.6,465.6,602.9,451.9z"/><path class="st6" d="M593.6,599.9c0.2-0.2,0.2-0.3,0.3-0.4c0.1-0.1,0.2-0.2,0.2-0.3c0.1-0.2,0.2-0.3,0.3-0.4     c0.1-0.1,0.2-0.2,0.2-0.3c0.1-0.2,0.2-0.3,0.3-0.4c0.1-0.1,0.2-0.2,0.2-0.3c0.1-0.2,0.2-0.3,0.3-0.4c0.1-0.1,0.2-0.2,0.2-0.3     c0.1-0.2,0.2-0.3,0.3-0.5c0.1-0.1,0.2-0.2,0.2-0.3c0.1-0.2,0.2-0.3,0.3-0.5c0.1-0.1,0.2-0.2,0.2-0.3c0.1-0.2,0.2-0.3,0.3-0.5     c0.1-0.1,0.2-0.2,0.2-0.3c0.1-0.2,0.3-0.4,0.4-0.6c0.1-0.1,0.1-0.2,0.2-0.3c0.2-0.3,0.4-0.6,0.5-0.8c0-0.1,0-0.1,0-0.1     c0.2-0.3,0.3-0.5,0.5-0.8c0.1-0.1,0.1-0.2,0.2-0.3c0.1-0.2,0.2-0.4,0.4-0.6c0.1-0.1,0.2-0.2,0.2-0.3c0.1-0.2,0.2-0.3,0.3-0.6     c0.1-0.1,0.1-0.2,0.2-0.3c0.1-0.2,0.2-0.3,0.3-0.5c0.1-0.1,0.1-0.2,0.2-0.4c0.1-0.2,0.2-0.3,0.3-0.5c0.1-0.1,0.1-0.2,0.2-0.4     s0.2-0.3,0.3-0.6c0.1-0.1,0.1-0.2,0.2-0.4s0.2-0.3,0.3-0.6c0.1-0.1,0.1-0.2,0.2-0.3c0.1-0.2,0.2-0.4,0.3-0.6     c0.1-0.1,0.1-0.2,0.2-0.3c0.1-0.2,0.2-0.5,0.3-0.7c0-0.1,0.1-0.2,0.1-0.3c0.1-0.4,0.3-0.6,0.4-1c0-0.1,0-0.1,0-0.1     c0.1-0.3,0.3-0.6,0.4-0.9c0-0.1,0.1-0.2,0.1-0.3c0.1-0.2,0.2-0.5,0.3-0.7c0-0.1,0.1-0.2,0.1-0.4c0.1-0.2,0.2-0.4,0.2-0.6     c0.1-0.1,0.1-0.3,0.2-0.4c0.1-0.2,0.2-0.4,0.2-0.6c0.1-0.1,0.1-0.3,0.2-0.4c0.1-0.2,0.2-0.4,0.2-0.6c0-0.1,0.1-0.3,0.1-0.4     c0.1-0.2,0.2-0.4,0.2-0.6c0-0.1,0.1-0.3,0.1-0.4c0.1-0.2,0.1-0.5,0.3-0.7c0-0.1,0.1-0.2,0.1-0.4s0.1-0.5,0.3-0.8     c0-0.1,0.1-0.2,0.1-0.4c0.1-0.3,0.2-0.6,0.3-0.9c0-0.1,0-0.1,0.1-0.2c0.3-0.8,0.5-1.5,0.7-2.2c0-0.1,0.1-0.2,0.1-0.3     c0.1-0.3,0.2-0.5,0.3-0.8c0-0.1,0.1-0.2,0.1-0.4s0.2-0.5,0.3-0.8c0-0.1,0-0.2,0.1-0.4c0-0.2,0.1-0.5,0.2-0.7c0-0.1,0-0.2,0.1-0.4     c0-0.2,0.1-0.5,0.2-0.7c0-0.1,0-0.2,0.1-0.4c0-0.2,0.1-0.5,0.2-0.8c0-0.1,0-0.2,0.1-0.4c0.1-0.3,0.2-0.5,0.2-0.8     c0-0.1,0.1-0.2,0.1-0.4c0.1-0.3,0.2-0.6,0.2-0.9c0-0.1,0-0.2,0.1-0.2c0.3-1.2,0.7-2.3,0.9-3.5c0-0.1,0-0.1,0-0.1     c0.1-0.4,0.2-0.7,0.2-1c0-0.1,0-0.2,0-0.2c0.1-0.3,0.2-0.6,0.2-0.9c0-0.1,0-0.2,0.1-0.3c0.1-0.3,0.2-0.6,0.2-0.8     c0-0.1,0-0.2,0.1-0.3c0.1-0.3,0.2-0.6,0.2-0.9c0-0.1,0-0.2,0.1-0.3c0.1-0.3,0.2-0.6,0.2-0.9c0-0.1,0-0.2,0.1-0.3     c0.1-0.4,0.1-0.7,0.2-1c0-0.1,0-0.1,0-0.2c0.1-0.4,0.2-0.7,0.3-1.1c0-0.1,0-0.1,0-0.1c0.4-1.6,0.7-3.3,1.1-4.9c0-0.1,0-0.1,0-0.1     c0.1-0.4,0.1-0.7,0.2-1.1c0-0.1,0-0.1,0-0.2c0.1-0.4,0.1-0.7,0.2-1c0-0.1,0-0.1,0-0.2c0.1-0.4,0.1-0.7,0.2-1c0-0.1,0-0.1,0-0.2     c0.1-0.4,0.1-0.7,0.2-1.1c0-0.1,0-0.1,0-0.1c0.6-3.3,1.2-6.6,1.7-9.7l0,0c-0.2-1.1-0.6-2-0.9-2.8c0,0-3.9-11-8.2-8.7     c-4.3,2.2-12.8,16-14.9,24c-2.2,7.9-15.8,48.3-19.5,61.4c-2,6.8-6.9,15-10.9,23.5c10.1-7.8,19.8-15.1,30.4-27.8     c0.2-0.2,0.3-0.4,0.6-0.7C593.5,600.1,593.5,600,593.6,599.9z"/><path class="st21" d="M417.1,526.8c0,0,13.8,21.1,15.4,31.1c1.5,9.9,4.4,23.6,5.7,26.5s24.6,37.5,8.6,21.4     c-15.9-16-23.7-22.4-26-37.6C418.6,553.1,417.1,526.8,417.1,526.8z"/><path class="st6" d="M537.2,545.5c0,0,9.1,24.3,8.4,28.9c-0.7,4.6,5.5,10.1,8.2,6.2C556.6,576.6,537.2,545.5,537.2,545.5z"/><path class="st21" d="M477.4,537.8c0,0-11.3,28.3-12.6,37.6c-1.2,9.4,3.4,22.2,3.4,22.2S479.9,545.9,477.4,537.8z"/><path class="st23" d="M475.8,542.9c0,0-9.6,33.1-7.9,38.3C469.6,586.4,472.4,555.5,475.8,542.9z"/><path class="st8" d="M467.2,522.9c0,0-29.9-7.1-28.2,1.3c1.6,8.5,11.3,39.4,17.8,27.4C463.3,539.7,471.3,525.4,467.2,522.9z"/><path class="st8" d="M576.4,528.1c0,0-29.9-7.1-28.2,1.3c1.6,8.6,11.3,39.4,17.8,27.4C572.5,544.8,580.5,530.5,576.4,528.1z"/><path class="st9" d="M637,473.6c1.5,7.5-1.4,27.2-4.5,36c-3.1,8.8-5.4,48.7-11.5,45.7c-6-3-7.6-11.1-7.6-11.1s3.2-53.9,9.3-66     C628.8,466.3,634.2,459.4,637,473.6z"/><path class="st9" d="M393,466.1c-2,7.4-0.5,27.2,2,36.3c2.5,9,2,48.9,8.3,46.3c6.2-2.6,8.4-10.5,8.4-10.5s0.4-54-4.7-66.4     C401.8,459.4,396.8,452.2,393,466.1z"/><path class="st24" d="M454,524.3c0,0-11.6,2.4-3.2,9.8C459.2,541.5,454,524.3,454,524.3z"/><path class="st24" d="M558.6,529.1c0,0-11.6,2.4-3.2,9.8C563.9,546.2,558.6,529.1,558.6,529.1z"/><path class="st25" d="M620.6,516c0,0,9.6-42.3,10.1-37.9c0.5,4.3-1,12.5-1.4,23.2c-0.4,10.6-3.5,45-7,40.5     C618.7,537.2,616.7,522.7,620.6,516z"/><path class="st25" d="M408.4,508.7c0,0-6.7-42.8-7.5-38.5c-0.8,4.4,0.2,12.6-0.2,23.2s0.3,45.1,4.2,40.9     C408.9,530,411.9,515.7,408.4,508.7z"/><path class="st9" d="M407.2,497c0,0-1.3,18.4,1.2,20.7C408.4,517.7,401.2,509.6,407.2,497z"/><path class="st26" d="M617.3,527.7c-0.4-2.6-0.7-4.8-0.6-6.2c-0.1-9.8-5.4-6.4-7.4,16c-2,22.5-20.1,57-27.5,71.1     c-7.3,14.2-7.3-5.3-10.2-13.5c-2.8-8.3-5-0.2-10.5,14.7c-4.9,13.1-31.6,34.3-37.7,39.1c3.8-1,7.8-2.4,11.9-4.7     c13-7.1,34.9-16.3,57.6-43.3C605.9,585.2,613.2,554.3,617.3,527.7z"/><path class="st27" d="M421.1,405.1c0,0-3.7,18.1,8.1,34c11.9,16,6,12.7,13.6,6.7s28.4-5.2,51-13.3c22.6-8.1,31.2-31.6,1.3-37.8     C465.2,388.5,424.2,389.2,421.1,405.1z"/><path class="st6" d="M609.3,390.6c-0.4,8.3-2,27.1-7.5,37c-7.3,12.9-3.6,31.8-0.1,38.9c3.5,7,10.9,31.1,17.5,20     c1.7-2.9,3.3-5.4,4.7-7.9c3-16.9,9.5-61.8,9.5-61.8C631.3,404,622,395.8,609.3,390.6z"/><path class="st6" d="M397,413.3c0,0,4.3,30,6.6,50.5c0.4,0.6,0.9,1.3,1.3,2.1c5.9,10.9-1-8.2,3-13.1s6-28.6,6.5-43     c0.2-4.5-1.7-10.3-4.4-15.9C403.6,398.6,399,404.9,397,413.3z"/><path class="st28" d="M637,473.6c-2.4-12.1-6.7-8.9-11.6-0.3c3.2-18.8,8.9-58.5,8.9-58.5c-7.6-47.5-115.8-32.2-123-30.1     c-7.1-2.6-102.4-20.2-113.2,26.6c0,0,5,35.3,7.1,55.5c-4.5-9.8-8.8-14-12.1-1.7c-2,7.4-0.5,27.2,2,36.3c2.5,9,2,48.9,8.3,46.3     c4-1.7,6.3-5.6,7.5-8.2c3,20.8,8.1,41.2,17,53.4c20.8,28.6,44.7,39.3,57.1,47.3c10.7,6.8,21.9,8.1,25,8.3v0.1c0,0,0.1,0,0.4,0     s0.4,0,0.4,0v-0.1c3.1,0,14.4-0.6,25.5-6.6c13-7.1,34.9-16.3,57.6-43.3c9.6-11.5,16.1-31.3,20.5-51.5c1,2.6,3.1,6.2,6.6,8     c6,3,8.3-36.8,11.5-45.7C635.6,500.8,638.4,481.1,637,473.6z"/><path class="st29" d="M409.1,479.2c0,0-7.4-22.2-4.2-30.4l1.7-1.6c0,0-0.3-1.3,0.8-3.6c1.1-2.2,2.4-2.9,0.8-3.9s2.1-3.6,2.1-3.6     l-2.3-1.7c0,0-0.6-1.4-0.3-2.6c0.4-1.3,1.2-4.5,1.2-4.5s-2.7,1.9,0.5-2.9c3.1-4.8,3.9-6.1,3.9-6.1s-9.2-1.3,2.3-8.4     c11.4-7.2,11.5-28.1,38.2-23.6c26.8,4.5,52,5.4,52,5.4s47.8-14.5,70.3,1.5c22.4,15.9,37.6,33.5,38.1,38.1l-6.2-2.2l6.4,6.1     l-6.2-1.2l7.7,4.6l-4.3,0.2l2.6,1.8l-0.4,2.3l0.6,2.4l3.2,2.1l0.6,2.7l2.5,12.5l1.6,11.2l-0.5,6.9c0,0,4.5-8.3,11.7-24.2     c7.1-15.8,21.5-47.1-0.2-76c0,0-64.9-129.5-204.3-44.1c-27.7,6.8-43.8,57.2-39.1,86.1c4.7,28.9,1.5,24.7,2.6,30.3     c1.1,5.6,3,8.3,3,8.3S404.4,463.3,409.1,479.2z"/><path class="st30" d="M520.2,373.5c-58.9,5.8-69.9,12.9-86.8,1.9c-16.9-10.9-26.3,4-21.5,10.1c3.2,4.1,4.2,7.5,13.4,12.9     c5.2-7.7,11.4-15.1,28.5-12.3c26.8,4.5,52,5.4,52,5.4s47.8-14.5,70.3,1.5c22.5,15.9,37.6,33.5,38.1,38.1l-6.2-2.2l6.4,6.1     l-6.2-1.2l7.4,4.4c8.7-0.9,13.8-2.8,13.8-2.8s-1.1-12.3-12.2-32.5C606,382.8,579,367.6,520.2,373.5z"/><path class="st31" d="M408.2,363.2c0,0-9.8,27.2-8.1,36.2c1.7,8.9-4.9,27.9-1.4,26.1s1.2-6.9,5.5-16.1s-2.1-9.5,0.2-21.2     C406.8,376.5,408.2,363.2,408.2,363.2z"/><path class="st31" d="M442.8,371.8c0,0,13.2,3.9,28.2,11.3s21.9,7.2,26.8,7.9s-17.1-4.6-24.3-8.7     C466.3,378.1,442.8,371.8,442.8,371.8z"/><path class="st31" d="M441.5,377.2c0,0,13.5,2.7,29.1,8.8c15.6,6,22.5,5.3,27.4,5.5s-17.4-3-25-6.6     C465.4,381.4,441.5,377.2,441.5,377.2z"/><path class="st31" d="M460.1,372.9c0,0,10.2,3.7,21.7,10.1s17,6.7,20.8,7.5c3.9,0.8-13.3-4.5-18.8-8     C478.3,379.1,460.1,372.9,460.1,372.9z"/><path class="st31" d="M468.3,367.7c0,0,9.5,5.4,19.7,13.6s15.6,9.4,19.3,10.9s-12.4-6.6-17.2-11     C485.3,376.8,468.3,367.7,468.3,367.7z"/><path class="st32" d="M478.5,465.5"/><path class="st33" d="M412.6,490.6c0,0,6.7,1.9,10.6-0.4s1.1-2.2,1.1-2.2S418.8,492.3,412.6,490.6z"/><path class="st22" d="M486,486.8c0,0-4.5-2.9-4.4,1c0.1,3.8,2.8,4.5,2.8,6.6c-0.1,2.2-3.1,4.3-3.1,4.3s-0.6,1.9,1.9,0.6     C485.6,497.9,489,488.6,486,486.8z"/><path class="st34" d="M479.6,494.9c0,0-1.1,1.1,0.2,0.8C481.2,495.5,479.9,494.6,479.6,494.9z"/><path class="st35" d="M491.4,586.5c0,0,9.1-4.1,15.6-3.2c6.5,0.9,7.6-1.6,12.3,0.5c4.6,2.1,7.2,4.3,7.2,4.3     S497.6,590.9,491.4,586.5z"/><path class="st36" d="M517.9,576.5l-3.3-1.3c-16.1-4.7-23,1.4-23,1.4c0.8,1,3.4,0,4.3-0.4c1.5,0.8,5.3,2.4,8.6,0.8     c2.1,0.9,5.8,2,8.8-0.4C515.4,577.5,517.9,576.5,517.9,576.5z"/><path class="st37" d="M502.2,583.2c0,0,3.4-6.7,6.9-2.1c0,0,3.7-2.8,6.8-0.8c3.1,2.1,4.4,2.1,5.3,4.1c0,0-9.5-1.9-10.9-1.3     C508.7,583.8,502.2,583.2,502.2,583.2z"/><path class="st6" d="M416.1,494.9c0,0-15.6,14.2-16.9,21.6c-1.3,7.4-1.1,9.1,0.7,14.3c1.7,5,4.5,17.6,5.3,21.2     c0.2-20.1-2.5-41.3,11.1-56.1C416.1,495.2,416.1,494.9,416.1,494.9z"/></g><path class="st21" d="M519,608.2c0,0-42.2-6.2-29.7,8.6C501.8,631.6,537.8,626.2,519,608.2z"/><path class="st38" d="M538.8,495.3c0,0,13.4-11,28.1-7.6c14.7,3.4,17.1,7.5,17.1,7.5s2.5,2.8-1.6,3.7c-4.5,1.1-2.9,3.2-14.2,2.5    C556.9,500.8,539.3,496,538.8,495.3z"/><path class="st39" d="M482.9,494.7c0,0-13.4-10.9-28.1-7.6c-14.7,3.4-18.4,7.6-18.4,7.6s-1.7,0.9,2.1,2.3c3.9,1.5,3.7,4.4,15,3.8    C464.8,500.2,482.4,495.3,482.9,494.7z"/><path class="st40" d="M537,478.7c0,0,7.9,3.2,21.5,1.1c13.7-2.1,33.6-5.8,41,6.3c0,0-3.7-11-14.7-13.1c-11-2.1-31,3.7-38.4,1.6    S535.4,476.6,537,478.7z"/><path class="st40" d="M486.2,478.7c0,0-7.9,3.2-21.5,1.1c-13.7-2.1-33.6-5.8-41,6.3c0,0,3.7-11,14.7-13.1c11-2.1,31,3.7,38.4,1.6    S487.8,476.6,486.2,478.7z"/><path class="st41" d="M559.5,487.7c-3.1,1.5-5.2,4.4-5.2,7.7c0,2.3,1,4.4,2.7,5.9c3.9,0.8,7.9,1.4,11.3,1.6c0.6,0,1.1,0.1,1.6,0.1    c3-1.5,5-4.4,5-7.6c0-2.1-0.8-3.9-2.2-5.5c-1.7-0.5-3.5-1.1-5.7-1.6C564.4,487.7,561.9,487.6,559.5,487.7z"/><path class="st42" d="M465.8,494.5c0-4-2.9-7.4-6.9-8.6c-1.4,0.1-2.7,0.3-4.1,0.7c-2.7,0.7-5,1.4-7,2.1c-1.5,1.6-2.4,3.6-2.4,5.9    c0,2.9,1.5,5.4,3.8,7.1c1.2,0.1,2.6,0,4.3-0.1c3.1-0.2,6.6-0.7,10.2-1.4C465,498.6,465.8,496.6,465.8,494.5z"/><circle class="st43" cx="564.8" cy="495.5" r="3.9"/><circle class="st43" cx="455.6" cy="494.7" r="3.9"/><line class="st44" x1="559.8" y1="490.8" x2="569.4" y2="501.1"/><line class="st44" x1="557.9" y1="493.6" x2="571.2" y2="498.3"/><line class="st44" x1="557.5" y1="495.9" x2="571.6" y2="496"/><line class="st44" x1="557.9" y1="498.2" x2="571.3" y2="493.8"/><line class="st44" x1="558.9" y1="500.2" x2="570.2" y2="491.7"/><line class="st44" x1="560.6" y1="501.8" x2="568.5" y2="490.1"/><line class="st44" x1="562.7" y1="502.8" x2="566.4" y2="489.1"/><line class="st44" x1="562.7" y1="502.8" x2="566.4" y2="489.1"/><line class="st44" x1="565.1" y1="503" x2="564.1" y2="488.9"/><line class="st44" x1="567.3" y1="502.5" x2="561.8" y2="489.5"/><path class="st43" d="M566.9,488.5c-2.5-0.5-5-0.6-7.4-0.5c-3.1,1.3-5.2,3.6-5.2,6.3c0,1.9,1,3.6,2.7,4.9c0.4,0.1,0.8,0.1,1.2,0.2    c-0.9-1.1-2.1-2.7-1.7-4.1c0.7-2.3,0.8-5,2.5-5.4c1.7-0.5,3.4-1.5,6-1.2c2.6,0.3,5.5,0.6,7.2,2.3c1.7,1.8,1.8,3.8,0.8,5.3    c-0.8,1.3-2.9,3.5-3.6,4.3c0.1,0,0.2,0,0.4,0c3-1.3,5-3.6,5-6.2c0-1.7-0.8-3.2-2.2-4.5C571,489.4,569.1,489,566.9,488.5z"/><circle class="st45" cx="570.3" cy="493.3" r="3.6"/><circle class="st45" cx="563.9" cy="496.8" r="2"/><circle class="st43" cx="455.6" cy="494.7" r="3.9"/><line class="st44" x1="450.3" y1="490.2" x2="460.3" y2="500.2"/><line class="st44" x1="448.7" y1="492.8" x2="461.9" y2="497.5"/><line class="st44" x1="448.2" y1="495.1" x2="462.4" y2="495.3"/><line class="st44" x1="448.6" y1="497.4" x2="462" y2="493"/><line class="st44" x1="449.7" y1="499.4" x2="460.9" y2="490.9"/><line class="st44" x1="451.4" y1="501" x2="459.2" y2="489.3"/><line class="st44" x1="453.5" y1="502" x2="457.1" y2="488.4"/><line class="st44" x1="453.5" y1="502" x2="457.1" y2="488.4"/><line class="st44" x1="455.8" y1="502.2" x2="454.8" y2="488.1"/><line class="st44" x1="458.1" y1="501.7" x2="452.5" y2="488.7"/><circle class="st45" cx="461" cy="492.5" r="3.6"/><circle class="st45" cx="454.6" cy="496" r="2"/></g><g><path class="st46" d="M405,468.7c0-0.1,0-0.2,0-0.3c-0.1-0.2-0.2-0.3-0.3-0.5C404.7,468.2,404.8,468.4,405,468.7z"/></g></g><rect xmlns="http://www.w3.org/2000/svg" x="40.2" y="522.6" class="st46" width="333.2" height="342.7"/><text xmlns="http://www.w3.org/2000/svg" transform="matrix(1 0 0 1 40.1809 434.2277)" class="st47 st48">Short nose</text><text xmlns="http://www.w3.org/2000/svg" transform="matrix(1 0 0 1 689.562 568.2423)" class="st49"><tspan x="0" y="0" class="st47 st48">Indistinct philtrum</tspan><tspan x="11.3" y="40.8" class="st47 st48">(groove between</tspan><tspan x="-26.5" y="81.6" class="st47 st48">nose and upper lip)</tspan></text><text xmlns="http://www.w3.org/2000/svg" transform="matrix(1 0 0 1 40.1809 293.1182)" class="st49"><tspan x="0" y="0" class="st47 st48">Skin fold at the</tspan><tspan x="0" y="40.8" class="st47 st48">corner of the eye</tspan></text><text xmlns="http://www.w3.org/2000/svg" transform="matrix(1 0 0 1 694.4874 304.943)" class="st47 st48">Low nasal bridge</text><text xmlns="http://www.w3.org/2000/svg" transform="matrix(1 0 0 1 679.5093 405.0598)" class="st47 st48">Small eye opening</text><text xmlns="http://www.w3.org/2000/svg" transform="matrix(1 0 0 1 738.6334 465.7605)" class="st47 st48">Small midface</text><text xmlns="http://www.w3.org/2000/svg" transform="matrix(1 0 0 1 34.9254 654.432)" class="st47 st48">Thin upperlip</text><g xmlns="http://www.w3.org/2000/svg" class="st50"><path class="st51" d="M759.4,881c-14.4,8.8-52.2,30-67.1,38.3L797.1,901c-4.7-35.9-55.9-170.7-76.1-195.9   c-12.6-15.8-88.1-30-113.4-41.7c-4.4-2-12.2-3.7-22.1-5.2c0.1,0,61.2,27.3,73.8,44.6s25.2,17.3,30,18.9   c4.7,1.6,20.5,40.2,22.1,63.9c1.6,23.6,1.6,18.9,19.7,21.3c18.1,2.4,3.9,22.9-6.3,29.2s3.2,20.5,22.9,30.7   C767.3,877,777.5,870,759.4,881z"/><path class="st52" d="M583.8,658c-0.3,0.2-0.7,0.5-1,0.7l2.7-0.5C585,658.1,584.4,658.1,583.8,658z"/></g><path xmlns="http://www.w3.org/2000/svg" class="st53" d="M677.4,955.9c0,0,8.7-125.3,3.9-156.1s-6.3-36.3-6.3-36.3s0-17.3-3.9,11c-3.9,28.4-7.1,37.8-7.1,46.5  s6.3,44.9-12.6,56c-18.9,11-52,55.2-47.3,74.9s32,39.7,16.2,56.3s-9.5,3.2-30.7,2.4c-21.3-0.8,86.7,45.7,86.7,45.7L677.4,955.9z"/><polyline xmlns="http://www.w3.org/2000/svg" class="st54" points="51.8,346 283,346 476.6,484.1 "/><path xmlns="http://www.w3.org/2000/svg" class="st53" d="M334.5,903.1c0-6.3,28.4-59.9,25.2-82c-3.2-22.1-7.9-45.7-9.5-53.6c-1.6-7.9-3.2-41,9.5-14.2  c12.6,26.8,7.9,28.4,18.9,36.3s-4.7,28.4-11,42.6C361.3,846.3,334.5,903.1,334.5,903.1z"/><path xmlns="http://www.w3.org/2000/svg" class="st55" d="M307.7,743.8c0,0,18.9-31.5,1.6-37.8s-14.2,0-23.6,18.9c-9.5,18.9-12.6,22.1-15.8,42.6S227.3,871.6,235.2,881  s6.3,12.6,25.2,12.6s25.2,0,12.6-23.6s-20.5-28.4-6.3-50.5C280.9,797.4,307.7,743.8,307.7,743.8z"/><path xmlns="http://www.w3.org/2000/svg" class="st56" d="M258.8,1012.9c0,0,115.1-130.4,129.3-160.3c14.2-30,15.8-4.7,9.5,12.6C391.3,882.6,258.8,1012.9,258.8,1012.9z  "/><path xmlns="http://www.w3.org/2000/svg" class="st17" d="M519.7,518.2c0,0-17.3-13.1-24.2-1.6C488.7,528.2,526,523.9,519.7,518.2z"/><path xmlns="http://www.w3.org/2000/svg" class="st57" d="M516.9,515.8c0,0-13.3-10.1-18.6-1.2C493.1,523.5,521.7,520.3,516.9,515.8z"/><path xmlns="http://www.w3.org/2000/svg" class="st57" d="M516.9,514.2c0,0-13.3-6.7-18.6-0.8C493.1,519.3,521.7,517.1,516.9,514.2z"/><path xmlns="http://www.w3.org/2000/svg" class="st58" d="M543.2,484.5c1.2-1-11.1,10.1-11.2,15c0,0.7,0.2,1.3,0.8,1.7C537.5,504.4,535.6,491.3,543.2,484.5z"/><path xmlns="http://www.w3.org/2000/svg" class="st58" d="M476.6,484.1c-1.6-0.9,17.2,10.1,13.6,15.1c-2.2,3-3.5-1.3-6.1-6.3C482.4,489.6,480.1,486.1,476.6,484.1z"/><path xmlns="http://www.w3.org/2000/svg" class="st59" d="M587.7,497.6c0,0-22.5-28.6-50.5-2.7"/><path xmlns="http://www.w3.org/2000/svg" class="st59" d="M485.5,496.6c0,0-1.1-1.5-3.2-3.4c-7.2-6.7-25.6-19.4-47.3,0.7"/><path xmlns="http://www.w3.org/2000/svg" class="st60" d="M482.9,494.7c0,0-13.4-10.9-28.1-7.6c-14.7,3.4-18.4,7.6-18.4,7.6s-1.7,0.9,2.1,2.3c3.9,1.5,3.7,4.4,15,3.8  C464.8,500.2,482.4,495.3,482.9,494.7z"/><path xmlns="http://www.w3.org/2000/svg" class="st60" d="M538.8,495.3c0,0,13.4-11,28.1-7.6c14.7,3.4,17.1,7.5,17.1,7.5s2.5,2.8-1.6,3.7c-4.5,1.1-2.9,3.2-14.2,2.5  C556.9,500.8,539.3,496,538.8,495.3z"/><polyline xmlns="http://www.w3.org/2000/svg" class="st54" points="504.2,507.3 698.1,320.5 950.4,320.5 "/><polyline xmlns="http://www.w3.org/2000/svg" class="st54" points="945.6,423 691.8,423 579.1,493.1 "/><polyline xmlns="http://www.w3.org/2000/svg" class="st54" points="590.9,510.5 697.3,478.9 952.7,478.9 "/><polyline xmlns="http://www.w3.org/2000/svg" class="st54" points="509.3,534.3 285,449.8 39.9,449.8 "/><polyline xmlns="http://www.w3.org/2000/svg" class="st54" points="513.9,560.1 652.6,664.2 949.6,664.2 "/><polyline xmlns="http://www.w3.org/2000/svg" class="st54" points="507.1,572.2 292.9,665.8 40.6,665.8 "/></svg>